<?xml version="1.0" standalone="no"?>
<!DOCTYPE svg PUBLIC "-//W3C//DTD SVG 20010904//EN"
 "http://www.w3.org/TR/2001/REC-SVG-20010904/DTD/svg10.dtd">
<svg version="1.0" xmlns="http://www.w3.org/2000/svg"
 width="900.000000pt" height="616.000000pt" viewBox="0 0 900.000000 616.000000"
 preserveAspectRatio="xMidYMid meet">

<g transform="translate(0.000000,616.000000) scale(0.100000,-0.100000)"
fill="#000000" stroke="none">
<path d="M4230 5679 c-36 -4 -89 -11 -118 -14 -29 -3 -59 -8 -65 -10 -7 -2
-29 -6 -49 -9 -131 -19 -376 -91 -535 -157 -652 -271 -1160 -768 -1447 -1416
-143 -322 -213 -640 -223 -1012 -12 -428 61 -796 236 -1189 312 -701 962
-1265 1699 -1477 52 -15 96 -25 98 -22 3 2 -13 103 -35 223 -22 121 -42 230
-44 244 -3 14 -24 134 -48 268 l-44 242 -482 0 -483 0 -1 43 c-1 23 -2 65 -4
92 -1 28 -5 131 -9 230 -4 99 -9 203 -11 230 -2 28 -7 145 -11 260 -5 116 -9
224 -10 240 -1 17 -2 51 -3 76 l-1 47 -43 6 c-55 8 -89 14 -152 26 -27 5 -71
11 -96 15 l-47 6 170 302 c94 166 201 356 238 422 37 66 81 143 96 170 l28 50
2 205 c0 113 6 246 13 295 39 283 156 594 296 790 84 118 156 196 264 289 318
273 591 424 909 502 61 15 112 31 112 36 0 10 -112 8 -200 -3z"/>
<path d="M4615 5224 c-18 -19 -19 -26 -3 -42 20 -20 66 -15 73 9 4 12 3 25 -2
30 -17 17 -52 18 -68 3z"/>
<path d="M4864 5225 c-12 -30 1 -50 33 -53 25 -3 33 1 38 18 8 27 -1 37 -38
44 -18 3 -30 0 -33 -9z"/>
<path d="M4372 5178 c-17 -17 -15 -47 3 -54 8 -4 27 -3 41 0 20 5 25 12 22 34
-2 20 -9 28 -28 30 -14 2 -31 -3 -38 -10z"/>
<path d="M5107 5184 c-15 -16 -6 -45 18 -54 36 -14 57 -2 53 29 -2 21 -9 27
-33 29 -17 2 -34 0 -38 -4z"/>
<path d="M4148 5089 c-24 -13 -23 -46 1 -59 28 -15 71 21 55 47 -13 22 -33 26
-56 12z"/>
<path d="M5340 5075 c0 -36 43 -56 68 -32 23 24 5 51 -37 55 -28 3 -31 0 -31
-23z"/>
<path d="M6216 5047 c205 -261 292 -417 374 -669 28 -85 69 -276 77 -359 12
-109 8 -404 -5 -479 -6 -36 -14 -83 -18 -105 -23 -149 -110 -376 -315 -821
-145 -315 -193 -408 -302 -578 l-51 -78 128 -514 c71 -283 132 -514 138 -514
5 0 75 66 156 148 355 356 592 772 711 1247 17 66 33 136 36 155 3 19 10 58
15 85 33 178 43 513 20 690 -6 50 -13 106 -15 126 -10 74 -47 247 -76 349 -98
342 -273 678 -496 956 -93 115 -310 335 -361 364 l-34 21 18 -24z"/>
<path d="M5573 4972 c-33 -5 -31 -49 2 -64 26 -12 55 2 55 27 0 20 -33 41 -57
37z"/>
<path d="M3938 4959 c-23 -13 -23 -55 -2 -63 20 -8 64 19 64 37 0 16 -20 37
-34 37 -6 0 -19 -5 -28 -11z"/>
<path d="M5741 4792 c-7 -14 -6 -25 5 -41 21 -29 58 -25 62 7 7 46 -47 72 -67
34z"/>
<path d="M3746 4781 c-14 -15 -15 -23 -6 -40 6 -12 17 -21 25 -21 22 0 46 30
43 54 -4 28 -39 32 -62 7z"/>
<path d="M4685 4752 c-61 -6 -171 -34 -242 -61 -221 -86 -418 -283 -503 -504
-48 -123 -63 -223 -58 -377 5 -117 10 -147 37 -230 98 -292 310 -502 595 -589
90 -28 151 -36 261 -36 124 0 188 10 287 43 289 97 511 334 589 629 41 151 33
352 -20 523 -41 134 -175 323 -291 409 -19 14 -41 32 -49 39 -31 30 -222 113
-304 132 -80 19 -227 30 -302 22z m215 -632 l0 -140 140 0 140 0 0 -125 0
-125 -140 0 -140 0 0 -140 0 -140 -123 0 -122 0 3 140 2 140 -145 0 -145 0 0
125 0 125 145 0 145 0 -1 113 c-1 61 -1 124 0 140 l1 27 120 0 120 0 0 -140z"/>
<path d="M5893 4594 c-10 -27 14 -66 40 -62 43 6 30 78 -15 78 -10 0 -21 -7
-25 -16z"/>
<path d="M3596 4579 c-17 -25 -6 -59 19 -59 22 0 46 30 43 54 -4 30 -42 33
-62 5z"/>
<path d="M6005 4370 c-9 -29 12 -62 38 -58 42 6 30 78 -14 78 -10 0 -20 -9
-24 -20z"/>
<path d="M3490 4366 c-18 -23 -8 -61 17 -64 30 -4 53 39 33 63 -16 19 -34 19
-50 1z"/>
<path d="M6080 4135 c-20 -24 3 -67 33 -63 18 2 22 9 22 38 0 28 -4 36 -21 38
-11 2 -27 -4 -34 -13z"/>
<path d="M3422 4128 c-32 -32 2 -87 40 -67 31 17 17 79 -17 79 -6 0 -16 -5
-23 -12z"/>
<path d="M6104 3886 c-3 -8 -4 -25 -2 -38 2 -17 9 -23 28 -23 22 0 25 4 25 35
0 29 -4 36 -23 38 -13 2 -24 -3 -28 -12z"/>
<path d="M3403 3883 c-18 -7 -16 -58 1 -72 21 -17 56 3 56 32 0 37 -24 54 -57
40z"/>
<path d="M6081 3628 c-12 -31 5 -60 32 -56 17 2 23 11 25 41 3 34 1 37 -23 37
-17 0 -28 -7 -34 -22z"/>
<path d="M3421 3626 c-14 -17 -5 -62 15 -70 24 -9 44 5 44 33 0 45 -35 66 -59
37z"/>
<path d="M6014 3385 c-8 -34 1 -55 26 -55 23 0 46 40 37 64 -4 9 -18 16 -31
16 -19 0 -27 -7 -32 -25z"/>
<path d="M3490 3385 c-27 -33 24 -90 54 -60 8 9 12 23 9 33 -15 42 -41 54 -63
27z"/>
<path d="M5912 3178 c-7 -7 -12 -25 -12 -40 0 -23 4 -28 25 -28 32 0 55 41 35
65 -15 18 -32 19 -48 3z"/>
<path d="M3606 3164 c-19 -19 -20 -25 -2 -49 27 -37 75 -18 61 25 -10 31 -40
43 -59 24z"/>
<path d="M5766 2975 c-9 -9 -16 -28 -16 -41 0 -21 4 -25 26 -22 34 4 53 31 38
55 -15 24 -29 26 -48 8z"/>
<path d="M3756 2965 c-19 -20 -20 -26 -3 -49 8 -11 23 -17 38 -14 31 4 33 45
3 65 -19 12 -24 12 -38 -2z"/>
<path d="M5582 2804 c-26 -18 -29 -52 -6 -61 24 -9 64 14 64 36 0 30 -32 43
-58 25z"/>
<path d="M3942 2798 c-18 -18 -14 -46 7 -58 30 -16 49 -12 57 12 5 16 1 27
-16 40 -26 21 -32 22 -48 6z"/>
<path d="M4157 2668 c-25 -13 -21 -47 7 -60 33 -14 56 -4 56 25 0 29 -38 50
-63 35z"/>
<path d="M5360 2665 c-20 -24 -8 -50 24 -50 32 0 53 23 43 49 -8 20 -50 21
-67 1z"/>
<path d="M4385 2574 c-25 -25 -15 -49 27 -59 20 -5 29 -2 37 13 19 36 -35 75
-64 46z"/>
<path d="M5137 2583 c-13 -3 -17 -12 -15 -31 2 -22 8 -27 32 -27 36 0 56 26
37 49 -14 16 -21 17 -54 9z"/>
<path d="M4624 2514 c-8 -32 6 -46 42 -42 22 2 30 9 32 27 7 45 -63 60 -74 15z"/>
<path d="M4883 2534 c-7 -3 -13 -16 -13 -30 0 -17 7 -25 25 -30 31 -8 57 12
53 40 -3 21 -38 31 -65 20z"/>
</g>
</svg>
